<?xml version="1.0" encoding="UTF-8"?>
<!DOCTYPE svg PUBLIC "-//W3C//DTD SVG 1.1//EN" "http://www.w3.org/Graphics/SVG/1.1/DTD/svg11.dtd">
<!-- Creator: CorelDRAW 2021 (64-Bit) -->
<svg xmlns="http://www.w3.org/2000/svg" xml:space="preserve" width="3.82914in" height="1.69079in" version="1.1" style="shape-rendering:geometricPrecision; text-rendering:geometricPrecision; image-rendering:optimizeQuality; fill-rule:evenodd; clip-rule:evenodd"
viewBox="0 0 652.07 287.93"
 xmlns:xlink="http://www.w3.org/1999/xlink"
 xmlns:xodm="http://www.corel.com/coreldraw/odm/2003">
 <defs>
  <style type="text/css">
   <![CDATA[
    .fil2 {fill:none}
    .fil0 {fill:#ED3237}
    .fil1 {fill:black}
   ]]>
  </style>
 </defs>
 <g id="Layer_x0020_1">
  <metadata id="CorelCorpID_0Corel-Layer"/>
  <path class="fil0" d="M180.45 185.09l15.51 0c11.49,0 20.89,-9.3 20.89,-20.66l0 -34.47c0,-11.36 -9.4,-20.66 -20.89,-20.66l-10.98 0 -4.87 -26.96c-1.3,-7.16 -8.28,-13.03 -15.53,-13.03l-68.03 0 -0.26 -1.46c-1.91,-10.56 5.27,-19.21 15.95,-19.21l62.96 0c10.68,0 20.99,8.64 22.9,19.21l4.08 22.56 4.03 0c17.17,0 31.23,13.89 31.23,30.87l0 51.51c0,16.98 -14.05,30.87 -31.23,30.87l-34.8 0c-13.67,20.44 -36.97,33.89 -63.4,33.89 -42.1,0 -76.24,-34.13 -76.24,-76.24 0,-42.1 34.13,-76.24 76.24,-76.24 42.1,0 76.24,34.13 76.24,76.24 0,8.3 -1.33,16.28 -3.78,23.76zm160.3 -76.47l-7.36 0 0 -28.77 8.21 0c3.21,0 5.46,0.15 6.76,0.47 1.29,0.31 2.39,0.85 3.3,1.61 1.06,0.88 1.87,1.98 2.43,3.29 0.56,1.32 0.83,2.78 0.83,4.39 0,1.72 -0.27,3.23 -0.82,4.53 -0.55,1.31 -1.36,2.37 -2.43,3.21 -0.81,0.63 -1.77,1.08 -2.87,1.36 -1.1,0.27 -2.86,0.42 -5.28,0.42l-1.33 0 -1.41 0 0 9.49zm0 -15.81l1.5 0c1.88,0 3.2,-0.26 3.94,-0.78 0.74,-0.52 1.12,-1.39 1.12,-2.64 0,-1.21 -0.37,-2.06 -1.1,-2.58 -0.73,-0.51 -2.03,-0.76 -3.89,-0.76l-1.57 0 0 6.76zm18.14 15.81l0 -28.77 7.85 0 0 11.18 10.46 0 0 -11.18 7.85 0 0 28.77 -7.85 0 0 -11.71 -10.46 0 0 11.71 -7.85 0zm61.79 -14.32c0,2.07 -0.38,4.01 -1.14,5.81 -0.76,1.81 -1.86,3.43 -3.32,4.85 -1.47,1.42 -3.15,2.5 -5.03,3.27 -1.88,0.76 -3.84,1.15 -5.87,1.15 -2.06,0 -4.03,-0.38 -5.91,-1.15 -1.88,-0.77 -3.53,-1.86 -4.96,-3.27 -1.48,-1.43 -2.6,-3.05 -3.37,-4.87 -0.76,-1.82 -1.15,-3.75 -1.15,-5.79 0,-2.06 0.38,-3.99 1.15,-5.81 0.77,-1.81 1.89,-3.43 3.37,-4.86 1.43,-1.41 3.08,-2.5 4.96,-3.27 1.88,-0.76 3.85,-1.15 5.91,-1.15 2.04,0 4.01,0.38 5.9,1.15 1.89,0.77 3.55,1.86 4.99,3.27 1.44,1.41 2.54,3.03 3.31,4.86 0.76,1.82 1.15,3.75 1.15,5.81zm-15.37 8.45c2.17,0 3.97,-0.8 5.39,-2.39 1.42,-1.6 2.13,-3.62 2.13,-6.05 0,-2.41 -0.72,-4.42 -2.16,-6.04 -1.44,-1.61 -3.23,-2.41 -5.36,-2.41 -2.17,0 -3.97,0.81 -5.39,2.41 -1.42,1.6 -2.13,3.62 -2.13,6.04 0,2.46 0.7,4.49 2.1,6.07 1.4,1.59 3.21,2.38 5.43,2.38zm23.72 5.87l0 -21.97 -6.44 0 0 -6.8 20.72 0 0 6.8 -6.44 0 0 21.97 -7.85 0zm46.94 -14.32c0,2.07 -0.38,4.01 -1.14,5.81 -0.76,1.81 -1.86,3.43 -3.32,4.85 -1.47,1.42 -3.15,2.5 -5.03,3.27 -1.88,0.76 -3.84,1.15 -5.87,1.15 -2.06,0 -4.03,-0.38 -5.91,-1.15 -1.88,-0.77 -3.53,-1.86 -4.96,-3.27 -1.48,-1.43 -2.6,-3.05 -3.37,-4.87 -0.76,-1.82 -1.15,-3.75 -1.15,-5.79 0,-2.06 0.38,-3.99 1.15,-5.81 0.77,-1.81 1.89,-3.43 3.37,-4.86 1.43,-1.41 3.08,-2.5 4.96,-3.27 1.88,-0.76 3.85,-1.15 5.91,-1.15 2.04,0 4.01,0.38 5.9,1.15 1.89,0.77 3.55,1.86 5,3.27 1.44,1.41 2.54,3.03 3.31,4.86 0.76,1.82 1.15,3.75 1.15,5.81zm-15.37 8.45c2.17,0 3.97,-0.8 5.39,-2.39 1.42,-1.6 2.13,-3.62 2.13,-6.05 0,-2.41 -0.72,-4.42 -2.16,-6.04 -1.44,-1.61 -3.23,-2.41 -5.36,-2.41 -2.17,0 -3.97,0.81 -5.39,2.41 -1.42,1.6 -2.13,3.62 -2.13,6.04 0,2.46 0.7,4.49 2.1,6.07 1.4,1.59 3.21,2.38 5.42,2.38zm-352.6 7.09c28.44,0 51.49,23.05 51.49,51.49 0,28.44 -23.05,51.49 -51.49,51.49 -28.44,0 -51.49,-23.05 -51.49,-51.49 0,-28.44 23.05,-51.49 51.49,-51.49zm4.51 12.6c1.41,0 2.79,0.07 4.16,0.21l-3.97 18.39c-0.06,-0 -0.13,-0 -0.19,-0 -12.08,0 -21.87,9.79 -21.87,21.87 0,5.24 1.85,10.06 4.93,13.83l-11.73 14.73c-7.29,-7.32 -11.8,-17.41 -11.8,-28.56 0,-22.35 18.12,-40.47 40.47,-40.47z"/>
  <path class="fil1" d="M264.03 89.57l10.59 0 37.07 0 0 9.91c0,5.45 -4.46,9.91 -9.91,9.91l-27.16 0 0 84.13c0,5.82 -4.76,10.59 -10.59,10.59l-10.59 0 0 -103.95c0,-1.44 0.29,-2.82 0.82,-4.08l0.01 -0.03c1.4,-3.77 5.05,-6.48 9.29,-6.48l0.46 0zm90.54 124.56l157.21 0c6.45,0 11.72,5.27 11.72,11.72 0,6.45 -5.27,11.72 -11.72,11.72l-157.21 0 -47.33 0 -155.66 0c10.52,-5.66 19.56,-13.72 26.38,-23.44l129.27 0 47.33 0zm-170.85 20.31l0 -17.13 3.57 0c2.66,0 4.54,0.12 5.64,0.37 1.11,0.25 2.07,0.67 2.91,1.25 1.09,0.76 1.91,1.73 2.47,2.91 0.56,1.18 0.84,2.53 0.84,4.05 0,1.51 -0.28,2.86 -0.84,4.04 -0.56,1.18 -1.38,2.15 -2.47,2.91 -0.83,0.57 -1.77,0.99 -2.83,1.23 -1.06,0.24 -2.7,0.37 -4.93,0.37l-0.79 0 -3.57 0zm4.62 -3.83l0.78 0c1.83,0 3.18,-0.38 4.02,-1.13 0.84,-0.75 1.26,-1.94 1.26,-3.59 0,-1.64 -0.42,-2.84 -1.26,-3.6 -0.84,-0.76 -2.19,-1.15 -4.02,-1.15l-0.78 0 0 9.47zm15.73 3.83l0 -17.13 4.72 0 0 17.13 -4.72 0zm18.5 -6.3l0 -3.6 9.18 0c0.01,0.12 0.02,0.25 0.02,0.39 0,0.14 0,0.34 0,0.62 0,2.95 -0.78,5.23 -2.34,6.86 -1.55,1.63 -3.75,2.44 -6.57,2.44 -1.39,0 -2.62,-0.21 -3.7,-0.63 -1.08,-0.41 -2.04,-1.05 -2.89,-1.91 -0.81,-0.82 -1.44,-1.79 -1.89,-2.91 -0.45,-1.12 -0.67,-2.29 -0.67,-3.51 0,-1.28 0.22,-2.46 0.66,-3.53 0.43,-1.07 1.09,-2.04 1.95,-2.9 0.86,-0.83 1.84,-1.47 2.95,-1.9 1.11,-0.43 2.31,-0.64 3.6,-0.64 1.68,0 3.16,0.33 4.45,0.99 1.29,0.66 2.38,1.65 3.26,2.96l-4.05 1.94c-0.48,-0.66 -1.03,-1.15 -1.63,-1.48 -0.61,-0.32 -1.28,-0.49 -2.03,-0.49 -1.4,0 -2.5,0.47 -3.3,1.4 -0.8,0.94 -1.21,2.21 -1.21,3.82 0,1.63 0.4,2.91 1.21,3.85 0.8,0.94 1.91,1.41 3.3,1.41 1.19,0 2.18,-0.29 2.97,-0.87 0.79,-0.58 1.26,-1.35 1.39,-2.32l-4.65 0zm14.05 6.3l0 -17.13 4.72 0 0 17.13 -4.72 0zm12.82 0l0 -13.08 -3.83 0 0 -4.05 12.34 0 0 4.05 -3.83 0 0 13.08 -4.67 0zm16.23 -6.4l4.64 0 -1.74 -5.65c-0.05,-0.17 -0.13,-0.45 -0.22,-0.83 -0.1,-0.38 -0.22,-0.87 -0.36,-1.47 -0.1,0.42 -0.2,0.82 -0.3,1.21 -0.1,0.38 -0.2,0.75 -0.3,1.1l-1.72 5.65zm-6.55 6.4l5.92 -17.13 5.85 0 5.92 17.13 -4.65 0 -0.87 -3.07 -6.63 0 -0.89 3.07 -4.65 0zm21.2 0l0 -17.13 4.67 0 0 13.13 5.8 0 0 4 -10.47 0zm33.04 0l-4.39 0 0 -17.13 4.89 0c1.91,0 3.25,0.09 4.03,0.28 0.77,0.19 1.43,0.51 1.97,0.96 0.63,0.52 1.11,1.18 1.45,1.96 0.33,0.79 0.49,1.66 0.49,2.62 0,1.02 -0.16,1.92 -0.49,2.7 -0.33,0.78 -0.81,1.42 -1.45,1.91 -0.48,0.37 -1.05,0.64 -1.71,0.81 -0.66,0.16 -1.71,0.25 -3.15,0.25l-0.79 0 -0.84 0 0 5.66zm0 -9.42l0.89 0c1.12,0 1.91,-0.16 2.35,-0.46 0.44,-0.31 0.67,-0.83 0.67,-1.57 0,-0.72 -0.22,-1.23 -0.66,-1.53 -0.43,-0.3 -1.21,-0.45 -2.32,-0.45l-0.93 0 0 4.03zm12.68 9.42l0 -17.13 4.67 0 0 6.66 6.23 0 0 -6.66 4.67 0 0 17.13 -4.67 0 0 -6.97 -6.23 0 0 6.97 -4.67 0zm38.68 -8.53c0,1.23 -0.23,2.39 -0.68,3.46 -0.45,1.08 -1.11,2.04 -1.98,2.89 -0.87,0.84 -1.87,1.49 -3,1.95 -1.12,0.46 -2.29,0.68 -3.49,0.68 -1.23,0 -2.4,-0.23 -3.52,-0.68 -1.12,-0.46 -2.1,-1.11 -2.95,-1.95 -0.88,-0.85 -1.55,-1.82 -2.01,-2.9 -0.45,-1.08 -0.68,-2.23 -0.68,-3.45 0,-1.23 0.23,-2.38 0.68,-3.46 0.46,-1.08 1.13,-2.04 2.01,-2.9 0.85,-0.84 1.83,-1.49 2.95,-1.95 1.12,-0.45 2.29,-0.68 3.52,-0.68 1.21,0 2.39,0.23 3.51,0.68 1.13,0.46 2.12,1.11 2.98,1.95 0.86,0.84 1.51,1.81 1.97,2.89 0.46,1.08 0.68,2.24 0.68,3.46zm-9.15 5.03c1.29,0 2.36,-0.48 3.21,-1.43 0.85,-0.95 1.27,-2.16 1.27,-3.61 0,-1.43 -0.43,-2.63 -1.29,-3.59 -0.86,-0.96 -1.92,-1.44 -3.19,-1.44 -1.29,0 -2.36,0.48 -3.21,1.43 -0.85,0.95 -1.27,2.16 -1.27,3.6 0,1.47 0.42,2.67 1.25,3.61 0.83,0.95 1.91,1.42 3.23,1.42zm16 3.5l0 -13.08 -3.83 0 0 -4.05 12.34 0 0 4.05 -3.83 0 0 13.08 -4.67 0zm29.83 -8.53c0,1.23 -0.23,2.39 -0.68,3.46 -0.45,1.08 -1.11,2.04 -1.98,2.89 -0.88,0.84 -1.87,1.49 -3,1.95 -1.12,0.46 -2.29,0.68 -3.49,0.68 -1.23,0 -2.4,-0.23 -3.52,-0.68 -1.12,-0.46 -2.1,-1.11 -2.95,-1.95 -0.88,-0.85 -1.55,-1.82 -2.01,-2.9 -0.45,-1.08 -0.68,-2.23 -0.68,-3.45 0,-1.23 0.23,-2.38 0.68,-3.46 0.46,-1.08 1.13,-2.04 2.01,-2.9 0.85,-0.84 1.83,-1.49 2.95,-1.95 1.12,-0.45 2.29,-0.68 3.52,-0.68 1.21,0 2.39,0.23 3.52,0.68 1.13,0.46 2.12,1.11 2.98,1.95 0.86,0.84 1.51,1.81 1.97,2.89 0.46,1.08 0.68,2.24 0.68,3.46zm-9.15 5.03c1.29,0 2.36,-0.48 3.21,-1.43 0.85,-0.95 1.27,-2.16 1.27,-3.61 0,-1.43 -0.43,-2.63 -1.29,-3.59 -0.86,-0.96 -1.93,-1.44 -3.2,-1.44 -1.3,0 -2.37,0.48 -3.21,1.43 -0.85,0.95 -1.27,2.16 -1.27,3.6 0,1.47 0.42,2.67 1.25,3.61 0.83,0.95 1.91,1.42 3.23,1.42zm28.74 -2.04c0.69,0.79 1.38,1.37 2.05,1.77 0.67,0.39 1.35,0.58 2.02,0.58 0.62,0 1.14,-0.17 1.54,-0.5 0.4,-0.34 0.6,-0.76 0.6,-1.27 0,-0.57 -0.17,-1.01 -0.52,-1.31 -0.35,-0.31 -1.13,-0.63 -2.35,-0.95 -1.68,-0.45 -2.87,-1.04 -3.56,-1.77 -0.7,-0.73 -1.04,-1.72 -1.04,-2.98 0,-1.64 0.55,-2.98 1.65,-4.01 1.1,-1.03 2.52,-1.55 4.27,-1.55 0.95,0 1.84,0.13 2.69,0.38 0.85,0.26 1.65,0.64 2.41,1.15l-1.47 3.35c-0.53,-0.45 -1.07,-0.79 -1.63,-1.02 -0.56,-0.23 -1.11,-0.34 -1.65,-0.34 -0.56,0 -1.01,0.13 -1.37,0.4 -0.35,0.27 -0.53,0.62 -0.53,1.04 0,0.43 0.15,0.77 0.46,1.03 0.31,0.26 0.9,0.5 1.78,0.74l0.21 0.06c1.91,0.51 3.16,1.08 3.76,1.7 0.41,0.42 0.71,0.93 0.93,1.51 0.21,0.59 0.32,1.24 0.32,1.96 0,1.82 -0.59,3.28 -1.79,4.38 -1.19,1.11 -2.79,1.66 -4.78,1.66 -1.19,0 -2.28,-0.2 -3.26,-0.61 -0.98,-0.41 -1.92,-1.04 -2.82,-1.91l2.11 -3.48zm17.51 5.54l0 -13.08 -3.84 0 0 -4.05 12.34 0 0 4.05 -3.83 0 0 13.08 -4.67 0zm12.57 -17.13l4.65 0 0 8.34c0,1.22 0.03,2.11 0.09,2.64 0.06,0.53 0.17,0.98 0.32,1.34 0.18,0.44 0.49,0.77 0.93,1 0.44,0.23 0.99,0.34 1.63,0.34 0.64,0 1.18,-0.12 1.62,-0.34 0.44,-0.23 0.75,-0.57 0.94,-1 0.15,-0.36 0.26,-0.81 0.32,-1.34 0.06,-0.53 0.09,-1.42 0.09,-2.64l0 -1.17 0 -7.17 4.65 0 0 9.06c0,1.88 -0.11,3.27 -0.34,4.16 -0.23,0.89 -0.61,1.65 -1.15,2.29 -0.58,0.69 -1.39,1.22 -2.41,1.56 -1.02,0.35 -2.26,0.52 -3.72,0.52 -1.47,0 -2.71,-0.17 -3.73,-0.52 -1.02,-0.35 -1.83,-0.87 -2.42,-1.56 -0.53,-0.63 -0.91,-1.4 -1.14,-2.29 -0.23,-0.9 -0.34,-2.28 -0.34,-4.16l0 -1.78 0 -7.28zm20.66 17.13l0 -17.13 3.57 0c2.66,0 4.54,0.12 5.64,0.37 1.11,0.25 2.07,0.67 2.91,1.25 1.09,0.76 1.91,1.73 2.47,2.91 0.56,1.18 0.84,2.53 0.84,4.05 0,1.51 -0.28,2.86 -0.84,4.04 -0.56,1.18 -1.38,2.15 -2.47,2.91 -0.83,0.57 -1.77,0.99 -2.83,1.23 -1.06,0.24 -2.7,0.37 -4.93,0.37l-0.79 0 -3.57 0zm4.62 -3.83l0.78 0c1.83,0 3.17,-0.38 4.02,-1.13 0.84,-0.75 1.26,-1.94 1.26,-3.59 0,-1.64 -0.42,-2.84 -1.26,-3.6 -0.84,-0.76 -2.18,-1.15 -4.02,-1.15l-0.78 0 0 9.47zm15.73 3.83l0 -17.13 4.72 0 0 17.13 -4.72 0zm27.94 -8.53c0,1.23 -0.23,2.39 -0.68,3.46 -0.45,1.08 -1.11,2.04 -1.98,2.89 -0.87,0.84 -1.87,1.49 -3,1.95 -1.12,0.46 -2.29,0.68 -3.49,0.68 -1.23,0 -2.4,-0.23 -3.52,-0.68 -1.12,-0.46 -2.1,-1.11 -2.95,-1.95 -0.88,-0.85 -1.55,-1.82 -2.01,-2.9 -0.46,-1.08 -0.68,-2.23 -0.68,-3.45 0,-1.23 0.23,-2.38 0.68,-3.46 0.46,-1.08 1.13,-2.04 2.01,-2.9 0.85,-0.84 1.83,-1.49 2.95,-1.95 1.12,-0.45 2.29,-0.68 3.52,-0.68 1.21,0 2.39,0.23 3.51,0.68 1.13,0.46 2.12,1.11 2.98,1.95 0.86,0.84 1.51,1.81 1.97,2.89 0.46,1.08 0.68,2.24 0.68,3.46zm-9.15 5.03c1.29,0 2.36,-0.48 3.21,-1.43 0.85,-0.95 1.27,-2.16 1.27,-3.61 0,-1.43 -0.43,-2.63 -1.29,-3.59 -0.86,-0.96 -1.93,-1.44 -3.2,-1.44 -1.29,0 -2.36,0.48 -3.21,1.43 -0.85,0.95 -1.27,2.16 -1.27,3.6 0,1.47 0.42,2.67 1.25,3.61 0.83,0.95 1.91,1.42 3.23,1.42zm-10.5 -121.56l33.19 0 0 16.43 -32.21 0 -0.07 -0 -0.07 0 -0.51 0c-4.97,0 -9.12,3.71 -9.81,8.5 -0.14,0.68 -0.21,1.38 -0.21,2.1l0 67.7 10.02 0 0.57 0 42.87 0 0 0 0.46 0c4.27,0 7.93,-2.74 9.32,-6.55 0.52,-1.25 0.81,-2.61 0.81,-4.04l0 -84.13 0 -9.23 0 -0.68c0,-5.45 -4.46,-9.91 -9.91,-9.91l-0.68 0 -0 0 -53.69 0 0 9.91c0,5.45 4.46,9.91 9.91,9.91zm122.25 16.43l-0.61 0 -0.07 -0 -0.07 0 -31.89 0 0 -25.66c0,-5.83 -4.77,-10.59 -10.59,-10.59 -5.83,0 -10.59,4.76 -10.59,10.59l0 35.57 0 57.79c0,5.82 4.76,10.59 10.59,10.59l10.59 0 0 -58.47 21.37 0 0 58.47 10.59 0c5.83,0 10.59,-4.77 10.59,-10.59l0 -57.11 -0.01 -0.34 0.01 -0.34c0,-5.45 -4.46,-9.91 -9.91,-9.91zm-110.75 58.47l21.69 0 0 -38.65 -21.69 0 0 38.65zm-35.02 19.82l-10.59 0c-5.83,0 -10.59,-4.77 -10.59,-10.59l0 -47.88 -21.36 0 0 47.88c0,5.82 -4.77,10.59 -10.59,10.59 -5.83,0 -10.59,-4.77 -10.59,-10.59l0 -47.88 -21.25 0 0 47.88c0,5.82 -4.77,10.59 -10.59,10.59l-10.59 0 0 -67.7 0 -0.03 0 -0.03 0 -0.03 0 -0.03 0 -0.1 0 -0.03 0 -0 0 -0.03 0 -0.03 0 -0.03 0 -0.07 0 -0.03 0 -0.03 0 -0.03 0 -0 0 -0.03 0 -0.03 0 -0.03 0 -0.03 0 -0.03 0 -0.03 0 -0.03 0 -0.03 0 -0 0 -0.03 0 -0.03 0 -0.03 0 -0.03 0 -0.03 0 -0.03 0 -0.03 0 -0.03 0 -0 0 -0.03 0 -0.03 0 -0.03 0 -0.03 0 -0.03 0 -0.03 0 -0.03 0 -0.03 0 -0 0 -0.03 0 -0.03 0.02 -0.13 0.01 -0.03 0 -0.03 0 -0 0.01 -0.03 0.02 -0.13 0.01 -0.03 0.01 -0.03 0 -0.03 0 -0 0.01 -0.03 0.01 -0.03 0.01 -0.03 0.01 -0.03 0.01 -0.03 0.01 -0.06 0.01 -0.03 0 -0c0.71,-4.77 4.84,-8.46 9.8,-8.46l0.5 0 0.07 -0 10.59 0 0 0 31.78 0 0.07 -0 0.07 0 31.89 0 0 -0 10.59 0 0.07 0 0.5 0c4.96,0 9.09,3.69 9.8,8.46 0.14,0.69 0.22,1.4 0.22,2.13l0 67.7zm-176.33 0l0.57 0 10.59 0 21.69 0 10.59 0 0.46 0c4.27,0 7.93,-2.74 9.32,-6.54 0.52,-1.25 0.81,-2.61 0.81,-4.05l0 -67.7 -10.59 0c-5.83,0 -10.59,4.77 -10.59,10.59l0 47.88 -21.69 0 0 -47.88c0,-5.83 -4.77,-10.59 -10.59,-10.59l-10.59 0 0 67.7c0,0.71 0.07,1.4 0.21,2.08 0.68,4.8 4.83,8.51 9.81,8.51z"/>
  <rect class="fil2" x="-0" width="652.07" height="287.93"/>
 </g>
</svg>
